<svg height="120" viewBox="0 0 120 120" width="120" xmlns="http://www.w3.org/2000/svg"><g fill="none" fill-rule="evenodd"><g fill="#000" fill-rule="nonzero" transform="translate(44 40)"><path d="m29.0397468 0c2.2907348 0 3.6884711 1.39442231 3.9602532 3.10756962h-1.5142144c-.2329561-.95617523-1.0871284-1.75298796-2.4072128-1.75298796-1.7083446 0-2.7566469 1.39442231-2.7566469 3.58565736 0 2.2310757 1.0871284 3.62549801 2.7566469 3.62549801 1.2812584 0 2.1354307-.59760958 2.4072128-1.67330678h1.5142144c-.2717821 1.75298796-1.6695184 3.06772909-3.9214272 3.06772909-2.6401688 0-4.3096873-1.95219123-4.3096873-5.01992032-.0388261-2.98804778 1.6306925-4.94023902 4.2708613-4.94023902z"/><path d="m0 .15936249h1.4365625v1.51394429h.15530399c.42708621-1.0756972 1.35891044-1.67330678 2.64016881-1.67330678 1.2812585 0 2.1742567.67729076 2.60134291 1.67330678h.15530399c.50473815-1.03585667 1.5918665-1.67330678 2.87312487-1.67330678 1.90247463 0 2.98960293 1.11553785 2.98960293 3.14741027v6.65338645h-1.5142144v-6.29482067c0-1.43426297-.6600423-2.11155374-1.98012667-2.11155374-1.32008441 0-2.1742567.99601589-2.1742567 2.2310757v6.17529871h-1.51421443v-6.53386448c0-1.15537851-.77652023-1.87250993-1.98012667-1.87250993-1.24243235 0-2.1742567 1.0756972-2.1742567 2.47011951v5.97609556h-1.51421443z"/><path d="m18.0263628 10c-1.8248225 0-3.183733-1.11553785-3.183733-2.86852594 0-1.71314743 1.2424325-2.70916331 3.4166892-2.86852594l2.7178207-.15936249v-.87649405c0-1.19521916-.7376942-1.83266927-2.1354306-1.83266927-1.1259543 0-1.9024746.43824696-2.1354307 1.19521904h-1.5142144c.19413-1.55378481 1.6695185-2.54980069 3.6884711-2.54980069 2.2907348 0 3.5719932 1.19521903 3.5719932 3.22709158v6.53386448h-1.4365625v-1.43426297h-.155304c-.5435642 1.07569732-1.5530405 1.63346625-2.834299 1.63346625zm2.989603-4.66135468-2.5236908.15936262c-1.4365625.07968131-2.0577787.59760958-2.0577787 1.59362546 0 .99601589.8153463 1.55378481 1.9024746 1.55378481 1.5530405 0 2.6789949-1.03585654 2.6789949-2.43027885z"/></g><g transform="translate(38.195051 54.463852)"><path d="m11.106259 25.3032509c-6.92867533 0-11.106259-4.9247938-11.106259-12.6686075 0-7.77777773 4.27947589-12.6346434 11.106259-12.6346434 6.8607472 0 11.0385382 4.89082978 11.0385382 12.6346434.0337568 7.7438137-4.1098628 12.6686075-11.0385382 12.6686075zm0-22.51819501c-4.92479378 0-8.01552644 3.80397867-8.01552644 9.84958751 0 6.0116448 2.98884044 9.8835517 8.01552644 9.8835517 4.9587579 0 7.9475983-3.8719069 7.9475983-9.8835517.0339641-6.04560884-2.9888404-9.84958751-7.9475983-9.84958751z" fill="#000"/><path d="m11.106259 25.164362c6.7938833 0 10.9333562-4.7969731 10.8996489-12.5297186 0-7.71070073-4.1546721-12.49575451-10.8996489-12.49575451-6.74948967 0-10.96737011 4.79516222-10.96737011 12.49575451 0 7.7290769 4.17044155 12.5297186 10.96737011 12.5297186zm0-22.518195c5.0262638 0 8.1209661 3.851611 8.0864872 9.9884764 0 6.1385829-3.0879066 10.0224406-8.0864872 10.0224406-5.05671844 0-8.15441533-3.872121-8.15441533-10.0224406 0-6.11890607 3.14763555-9.9884764 8.15441533-9.9884764z" stroke="#000" stroke-width=".5"/></g><g transform="translate(62.489083 54.429888)"><path d="m8.96652111 25.3372149c-5.12857844 0-8.66084433-2.7171276-8.96652111-6.8947113h3.05676856c.373605 2.5133431 2.78505577 4.1436196 6.21542933 4.1436196 3.26055321 0 5.63803981-1.766133 5.63803981-4.1436196 0-2.0718098-1.4944201-3.3624454-4.8568656-4.2115478l-3.09073266-.8151382c-4.38136822-1.1208153-6.24939344-3.0907327-6.24939344-6.52110638 0-4.10965544 3.43037356-6.89471122 8.55895189-6.89471122 4.68704511 0 8.15138291 2.78505578 8.42309571 6.69092667h-3.0228046c-.4075691-2.47937889-2.4454148-3.939835-5.46821922-3.939835-3.22658911 0-5.332363 1.59631244-5.332363 4.04172733 0 1.90198933 1.32459978 2.98884033 4.65308111 3.8379428l2.51334301.6792819c4.992722 1.2566714 7.0305677 3.1926249 7.0305677 6.7588549-.0679283 4.4492964-3.56623 7.2683163-9.10237749 7.2683163z" fill="#000"/><path d="m14.7891126 6.55203778h2.7556786c-.3437634-3.76185578-3.7285615-6.41314889-8.27259331-6.41314889-5.04803678 0-8.420063 2.72245744-8.420063 6.75582233 0 3.36826758 1.830302 5.28280938 6.14592355 6.38680958l3.08931916.8147734c3.4202532.8637002 4.961749 2.1991138 4.961749 4.3462094 0 2.4715674-2.4562189 4.2825085-5.77692871 4.2825085-3.42785033 0-5.89034145-1.6130662-6.33363433-4.1436197h-2.78768934c.37222645 4.0146707 3.816923 6.6169336 8.81564689 6.6169336 5.45427489 0 8.89669929-2.7557953 8.96348859-7.1294274 0-3.4839354-1.9757558-5.3782929-6.9279161-6.6247767l-2.51143716-.6787812c-3.38664166-.86393926-4.75763855-1.9934537-4.75763855-3.9725217 0-2.531894 2.17512144-4.18061622 5.47125189-4.18061622 3.04322852 0 5.12192732 1.46199989 5.58484282 3.939835z" stroke="#000" stroke-width=".5"/></g><path d="m39 78c5.3399801 0 10.3624128-1.0174477 15.0672981-3.052343s8.8459621-4.8474576 12.4232303-8.4376869 6.3898305-7.7377867 8.437687-12.442672c2.0478564-4.7048853 3.0717846-9.727318 3.0717846-15.0672981s-1.0239282-10.3624128-3.0717846-15.0672981c-2.0478565-4.7048853-4.8604188-8.8524427-8.437687-12.442672s-7.7248255-6.40279161-12.442672-8.43768693c-4.7178464-2.03489531-9.7467597-3.05234297-15.0867397-3.05234297-5.3399801 0-10.3624128 1.01744766-15.0672982 3.05234297-4.7048853 2.03489532-8.8459621 4.84745763-12.4232303 8.43768693-3.57726816 3.5902293-6.38334991 7.7377867-8.41824523 12.442672-2.03489531 4.7048853-3.05234297 9.727318-3.05234297 15.0672981s1.01744766 10.3624128 3.05234297 15.0672981c2.03489532 4.7048853 4.84745763 8.8524427 8.43768693 12.442672s7.7377867 6.4027916 12.442672 8.4376869 9.727318 3.052343 15.0672981 3.052343zm0-5.0159521c-4.7178465 0-9.1246261-.881356-13.220339-2.6440678-4.0957128-1.7627119-7.6989033-4.1994018-10.8095713-7.3100698s-5.54087734-6.720339-7.29062808-10.829013c-1.74975075-4.108674-2.62462613-8.5089731-2.62462613-13.2008973s.87487538-9.0922233 2.62462613-13.2008973c1.74975074-4.108674 4.17347958-7.7248255 7.27118648-10.8484546 3.0977068-3.1236292 6.7008973-5.56031909 10.8095712-7.31006983 4.108674-1.74975075 8.5089731-2.62462613 13.2008974-2.62462613 4.7178464 0 9.1246261.87487538 13.2203389 2.62462613 4.0957129 1.74975074 7.7053839 4.18644063 10.829013 7.31006983 3.1236291 3.1236291 5.5667996 6.7397806 7.3295115 10.8484546 1.7627118 4.108674 2.6440678 8.5089731 2.6440678 13.2008973s-.8748754 9.0922233-2.6246262 13.2008973c-1.7497507 4.108674-4.1799601 7.718345-7.2906281 10.829013s-6.7268195 5.5473579-10.8484546 7.3100698c-4.1216351 1.7627118-8.5284148 2.6440678-13.220339 2.6440678z" fill="#000" fill-rule="nonzero" transform="translate(21 21)"/></g></svg>