<?xml version="1.0" encoding="UTF-8"?>
<svg width="120px" height="120px" viewBox="0 0 120 120" version="1.1" xmlns="http://www.w3.org/2000/svg" xmlns:xlink="http://www.w3.org/1999/xlink">
    <title>time machine</title>
    <g id="time-machine" stroke="none" stroke-width="1" fill="none" fill-rule="evenodd">
        <g id="􀣔" transform="translate(17.000000, 21.000000)" fill="#000000" fill-rule="nonzero">
            <path d="M2.28418261,31.8454636 C0.0152492372,31.8454636 -0.649782957,33.4007976 0.680281431,35.2283151 L9.20834133,47.3210369 C10.3036885,48.8374875 11.8293506,48.8374875 12.8855782,47.3210369 L21.4136381,35.2283151 C22.7045829,33.4007976 22.0395507,31.8454636 19.8097369,31.8454636 L13.3158931,31.8454636 C16.6019346,16.4865404 30.2937738,5.05483549 46.7631005,5.05483549 C65.6578388,5.05483549 80.9144597,20.1804586 80.9144597,39 C80.9144597,57.780658 65.6578388,73.0229312 46.7631005,72.9451645 C34.8707601,72.9451645 24.5040818,66.8793619 18.4014334,57.780658 C17.501684,56.5752742 16.054261,56.1864407 14.8024357,56.9252243 C13.6288494,57.6251246 13.2767736,59.2582253 14.2547621,60.5802592 C21.5701162,70.884347 33.3059785,78 46.7631005,78 C68.2397285,78 86,60.3469591 86,39 C86,17.6141575 68.2397285,0 46.7631005,0 C27.7118842,0 11.5946333,13.8424726 8.19123327,31.8454636 L2.28418261,31.8454636 Z M45.2374384,16.7198405 C43.8682545,16.7198405 42.8120269,17.7696909 42.8120269,19.0917248 L42.8120269,40.4386839 C42.8120269,41.2552343 43.0467442,41.8773679 43.5944177,42.5772682 L53.452542,55.5254237 C54.4305305,56.7696909 55.8779536,56.9641077 57.0515398,56.108674 C58.1468869,55.331007 58.2642455,53.9312064 57.3644961,52.7647059 L47.5846109,39.8165503 L47.5846109,19.0917248 C47.5846109,17.7696909 46.5283833,16.7198405 45.2374384,16.7198405 Z" id="Shape"></path>
        </g>
    </g>
</svg>