<svg height="120" viewBox="0 0 120 120" width="120" xmlns="http://www.w3.org/2000/svg"><path d="m0 43.3378378c0 3.4324325.93333333 6.0675676 2.8 7.9054054 1.86666667 1.8378379 4.5178744 2.7567568 7.9536232 2.7567568h62.4521739c3.4628019 0 6.1275362-.9189189 7.9942029-2.7567568 1.8666667-1.8378378 2.8-4.4729729 2.8-7.9054054v-32.7162162c0-3.40540538-.9333333-6.02702701-2.8-7.86486484-1.8666667-1.83783784-4.531401-2.75675676-7.9942029-2.75675676h-62.4521739c-3.4357488 0-6.08695653.91891892-7.9536232 2.75675676-1.86666667 1.83783783-2.8 4.45945946-2.8 7.86486484zm4.99130435.2027027v-33.1216216c0-3.83783782 1.92077294-5.75675674 5.76231885-5.75675674h62.4521739c3.868599 0 5.8028986 1.91891892 5.8028986 5.75675674v33.1216216c0 1.8378379-.5004831 3.2567568-1.5014493 4.2567568s-2.4347826 1.5-4.3014493 1.5h-62.4521739c-1.83961354 0-3.25990339-.5-4.26086958-1.5-1.00096618-1-1.50144927-2.4189189-1.50144927-4.2567568zm18.13913045-11.2297297c1.4879227 0 2.7391304-.5202703 3.7536232-1.5608108 1.0144927-1.0405405 1.5217391-2.2905405 1.5217391-3.75s-.5072464-2.7027027-1.5217391-3.7297297c-1.0144928-1.0270271-2.2657005-1.5405406-3.7536232-1.5405406-1.4608696 0-2.7120773.5135135-3.7536232 1.5405406-1.0415459 1.027027-1.5623188 2.2702702-1.5623188 3.7297297s.5207729 2.7094595 1.5623188 3.75 2.2927536 1.5608108 3.7536232 1.5608108zm18.9101449 0c1.4608696 0 2.705314-.5202703 3.7333333-1.5608108 1.0280194-1.0405405 1.542029-2.2905405 1.542029-3.75s-.5140096-2.7027027-1.542029-3.7297297c-1.0280193-1.0270271-2.2724637-1.5405406-3.7333333-1.5405406-1.4879227 0-2.7458937.5135135-3.773913 1.5405406-1.0280194 1.027027-1.542029 2.2702702-1.542029 3.7297297s.5140096 2.7094595 1.542029 3.75c1.0280193 1.0405405 2.2859903 1.5608108 3.773913 1.5608108zm18.9101449 0c1.4608696 0 2.705314-.5202703 3.7333334-1.5608108 1.0280193-1.0405405 1.542029-2.2905405 1.542029-3.75s-.5140097-2.7027027-1.542029-3.7297297c-1.0280194-1.0270271-2.2724638-1.5405406-3.7333334-1.5405406-1.4608695 0-2.7120773.5135135-3.7536232 1.5405406-1.0415458 1.027027-1.5623188 2.2702702-1.5623188 3.7297297s.520773 2.7094595 1.5623188 3.75c1.0415459 1.0405405 2.2927537 1.5608108 3.7536232 1.5608108z" transform="translate(18 32)"/></svg>